<?xml version="1.0" encoding="UTF-8"?>
<!DOCTYPE svg PUBLIC "-//W3C//DTD SVG 1.1//EN" "http://www.w3.org/Graphics/SVG/1.1/DTD/svg11.dtd">
<!-- Creator: CorelDRAW -->
<svg xmlns="http://www.w3.org/2000/svg" xml:space="preserve" width="409.097mm" height="59.5062mm" version="1.1" style="shape-rendering:geometricPrecision; text-rendering:geometricPrecision; image-rendering:optimizeQuality; fill-rule:evenodd; clip-rule:evenodd"
viewBox="0 0 6144.59 893.78"
 xmlns:xlink="http://www.w3.org/1999/xlink"
 xmlns:xodm="http://www.corel.com/coreldraw/odm/2003">
 <defs>
  <style type="text/css">
   <![CDATA[
    .fil0 {fill:#FEFEFE;fill-rule:nonzero}
    .fil1 {fill:#C46A2D;fill-rule:nonzero}
   ]]>
  </style>
 </defs>
 <g id="Слой_x0020_1">
  <metadata id="CorelCorpID_0Corel-Layer"/>
  <g id="_2537954998896">
   <path class="fil0" d="M495.94 10.26l0 193.25 -53.27 0c-7.98,-29.04 -15.59,-52.63 -23.01,-70.53 -7.42,-17.91 -15.22,-31.45 -23.39,-40.83 -8.17,-9.39 -17.63,-15.94 -28.58,-19.87 -10.95,-3.71 -25.24,-5.68 -42.88,-5.68l-159.43 0 0 348.08 112.1 0c15.96,0 28.4,-3.28 37.49,-9.39 9.09,-6.11 16.52,-16.6 22.46,-31.01 6.13,-14.41 11.69,-36.9 17.26,-67.26l51.04 0 0 270.12 -51.04 0c-5.57,-29.04 -11.32,-50.88 -17.45,-65.73 -6.13,-14.63 -13.55,-25.11 -22.09,-31.23 -8.54,-6.11 -21.16,-9.39 -37.68,-9.39l-112.1 0 0 250.9c0,25.55 1.3,46.08 3.9,61.36 2.41,15.29 6.68,27.51 12.43,36.47 5.75,8.95 13.55,15.72 23.39,20.09 9.84,4.59 21.9,8.73 36.38,12.45l0 31.44 -241.47 0 0 -31.44c22.64,-6.77 37.68,-14.2 45.29,-22.71 7.61,-8.3 12.62,-20.09 14.85,-35.37 2.41,-15.29 3.53,-38.87 3.53,-70.31l0 -553.56c0,-29.26 -0.93,-50.88 -2.6,-64.2 -1.86,-13.54 -4.83,-23.8 -9.09,-31.45 -4.08,-7.42 -9.65,-13.32 -16.52,-17.91 -6.87,-4.37 -18.75,-9.39 -35.45,-14.85l0 -31.45 495.94 0zm696.8 571.25c0,46.51 -3.71,86.69 -10.95,120.32 -6.87,31.88 -17.07,60.27 -31,85.16 -12.62,22.06 -28.4,41.05 -47.33,56.56 -18.75,15.51 -41.58,27.73 -68.49,36.69 -26.73,8.95 -58.28,13.54 -94.47,13.54 -43.99,0 -81.48,-5.9 -112.85,-17.25 -31.37,-11.57 -57.35,-30.35 -77.77,-56.78 -20.6,-26.2 -35.27,-56.99 -44.36,-92.59 -9.09,-35.59 -13.55,-81.01 -13.55,-136.04l0 -421.01c0,-33.19 -0.93,-55.68 -2.78,-67.48 -1.86,-11.57 -4.46,-20.96 -7.8,-27.73 -3.53,-6.77 -8.54,-12.66 -15.03,-17.69 -6.5,-4.8 -18.75,-10.05 -36.38,-15.5l0 -31.45 228.29 0 0 31.45c-20.23,5.9 -34.34,12.66 -42.32,20.09 -7.98,7.42 -13.55,18.56 -16.33,33.63 -2.97,14.85 -4.45,39.74 -4.45,74.68l0 453.11c0,41.27 3.71,75.99 11.14,104.16 7.42,28.17 18,50.01 31.37,65.51 13.36,15.72 29.33,27.08 47.89,34.07 18.38,6.99 41.39,10.48 69.05,10.48 25.24,0 47.7,-5.24 66.82,-15.72 19.3,-10.48 35.27,-26.2 48.07,-47.6 12.99,-21.4 21.72,-47.6 26.36,-78.61 4.83,-31.23 7.24,-72.93 7.24,-125.56l0 -399.83c0,-37.12 -1.67,-62.45 -4.64,-75.99 -3.16,-13.76 -8.17,-24.24 -15.22,-31.44 -7.24,-7.21 -21.72,-14.19 -43.8,-20.96l0 -31.45 216.97 0 0 31.45c-21.16,6.33 -35.45,13.32 -43.25,20.96 -7.8,7.64 -13.18,18.78 -16.15,33.41 -2.78,14.41 -4.27,39.09 -4.27,74.03l0 411.4zm390.55 -77.3l0 217.49c0,30.57 0.93,52.85 2.97,66.82 2.04,13.76 5.01,24.24 9.1,31.23 3.9,7.21 9.28,12.88 16.15,17.47 6.87,4.37 18.75,9.39 35.45,14.85l0 31.44 -229.6 0 0 -31.44c22.64,-6.77 37.68,-14.2 45.29,-22.71 7.61,-8.3 12.62,-20.09 14.85,-35.37 2.41,-15.29 3.53,-38.87 3.53,-70.31l0 -553.56c0,-29.26 -0.93,-50.88 -2.6,-64.2 -1.86,-13.54 -4.83,-23.8 -9.09,-31.45 -4.08,-7.42 -9.65,-13.32 -16.52,-17.91 -6.87,-4.37 -18.75,-9.39 -35.45,-14.85l0 -31.45 269.32 0c84.82,0 148.3,18.12 190.24,54.37 42.13,36.25 63.11,92.59 63.11,168.8 0,58.52 -13.73,108.31 -41.02,149.14 -27.47,41.05 -68.49,72.93 -123.24,96.08l0 5.02c22.09,10.7 41.02,25.99 56.8,45.64 15.78,19.87 33.41,50.66 52.53,92.59l49 104.82c14.11,30.79 26.17,54.16 36.38,70.53 10.21,16.16 20.42,28.39 31,36.9 10.58,8.52 24.5,14.63 41.95,17.91l0 31.44 -150.71 0c-13.73,-22.71 -26.91,-46.95 -39.16,-72.93 -12.25,-25.99 -24.5,-52.41 -36.38,-79.27l-47.88 -107c-14.48,-32.32 -26.36,-56.12 -35.64,-71.63 -9.28,-15.29 -17.82,-25.99 -25.61,-32.32 -7.8,-6.11 -15.96,-10.26 -24.87,-12.66 -8.91,-2.4 -22.27,-3.49 -40.09,-3.49l-59.77 0zm0 -434.99l0 379.96 61.44 0c31.55,0 57.17,-2.62 76.66,-8.08 19.67,-5.24 37.68,-15.5 54.38,-30.35 16.71,-14.85 30.07,-35.81 40.09,-62.45 9.84,-26.64 14.85,-59.4 14.85,-98.05 0,-40.62 -5.94,-74.24 -17.63,-101.1 -11.88,-26.86 -29.7,-47.38 -53.64,-61.58 -23.94,-13.97 -56.05,-20.96 -96.7,-20.96 -32.67,0 -59.21,0.87 -79.44,2.62zm1011.59 468.18c12.99,25.55 23.94,48.04 32.85,67.26 8.91,19.22 18,40.62 27.47,64.64l7.05 0c-1.67,-26.2 -3.34,-77.74 -4.83,-155.26 -1.48,-77.3 -2.23,-147.18 -2.23,-209.41l0 -134.51c0,-29.26 -0.74,-50.88 -2.04,-64.64 -1.49,-13.54 -4.08,-24.02 -7.98,-31.23 -3.71,-7.21 -9.09,-13.1 -15.78,-17.69 -6.68,-4.37 -18.38,-9.39 -35.08,-14.85l0 -31.45 195.81 0 0 31.45c-16.33,5.02 -27.84,9.61 -34.52,13.97 -6.68,4.37 -12.25,9.83 -16.33,16.6 -4.27,6.77 -7.42,17.03 -9.47,30.79 -2.23,13.54 -3.34,36.03 -3.34,67.04l0 717.34 -67.93 0 -302.91 -597.67c-18.93,-37.12 -32.3,-64.2 -40.28,-81.23 -7.98,-17.03 -15.41,-33.85 -22.27,-50.44l-9.28 0c2.6,32.76 4.45,92.15 5.57,178.19 0.93,85.82 1.49,171.42 1.49,256.8l0 130.58c0,28.39 0.93,49.35 2.6,62.67 1.48,13.1 4.27,23.58 8.17,31.23 3.71,7.64 9.28,14.19 16.71,19.22 7.42,5.24 19.49,10.26 36.19,15.29l0 31.44 -198.41 0 0 -31.44c22.46,-6.77 37.49,-14.2 45.1,-22.71 7.61,-8.3 12.62,-20.09 15.03,-35.37 2.23,-15.29 3.53,-38.87 3.53,-70.31l0 -553.56c0,-29.26 -0.93,-50.88 -2.78,-64.2 -1.86,-13.54 -4.83,-23.8 -8.91,-31.45 -4.27,-7.42 -9.84,-13.32 -16.71,-17.91 -6.87,-4.37 -18.56,-9.39 -35.27,-14.85l0 -31.45 170.2 0 268.57 527.14zm536.25 186.27c0,28.39 0.74,49.35 2.41,62.67 1.67,13.1 4.45,23.58 8.17,31.23 3.9,7.64 9.47,14.19 16.89,19.22 7.42,5.24 19.49,10.26 36.19,15.29l0 31.44 -229.59 0 0 -31.44c22.64,-6.77 37.68,-14.2 45.29,-22.71 7.61,-8.3 12.62,-20.09 14.85,-35.37 2.41,-15.29 3.53,-38.87 3.53,-70.31l0 -553.56c0,-29.26 -0.93,-50.88 -2.6,-64.2 -1.86,-13.54 -4.83,-23.8 -9.1,-31.45 -4.08,-7.42 -9.65,-13.32 -16.52,-17.91 -6.87,-4.37 -18.75,-9.39 -35.45,-14.85l0 -31.45 229.59 0 0 31.45c-15.96,4.59 -27.47,9.39 -34.52,13.97 -7.05,4.59 -12.81,10.48 -16.89,17.69 -4.27,6.99 -7.24,17.47 -9.28,31.66 -2.04,13.98 -2.97,35.81 -2.97,65.07l0 553.56z"/>
   <path class="fil1" d="M4151.81 41.71c-15.96,4.59 -27.47,9.39 -34.52,13.97 -7.05,4.59 -12.62,10.48 -16.89,17.69 -4.08,6.99 -7.24,17.47 -9.28,31.66 -1.86,13.98 -2.97,35.81 -2.97,65.07l0 553.56c0,28.39 0.93,49.35 2.41,62.67 1.67,13.1 4.45,23.58 8.17,31.23 3.9,7.64 9.47,14.19 16.89,19.22 7.42,5.24 19.49,10.26 36.19,15.29l0 31.44 -226.81 0 0 -31.44c20.79,-5.9 35.08,-12.67 43.06,-20.31 7.98,-7.64 13.36,-19 16.33,-34.07 2.78,-14.85 4.27,-39.52 4.27,-74.03l0 -245.01c0,-64.42 0.93,-129.71 2.41,-195.66 1.67,-65.73 3.53,-110.93 5.75,-135.17l-9.28 0 -215.3 633.92 -62.55 0 -200.08 -644.18 -9.28 0c1.86,25.99 3.53,73.15 5.2,141.28 1.67,68.35 2.41,138.44 2.41,210.5l0 234.31c0,28.39 0.93,49.35 2.6,62.67 1.48,13.1 4.27,23.58 8.17,31.23 3.71,7.64 9.28,14.19 16.71,19.22 7.42,5.24 19.49,10.26 36.19,15.29l0 31.44 -198.41 0 0 -31.44c22.46,-6.77 37.49,-14.2 45.1,-22.71 7.61,-8.3 12.62,-20.09 15.03,-35.37 2.23,-15.29 3.53,-38.87 3.53,-70.31l0 -553.56c0,-29.26 -0.93,-50.88 -2.78,-64.2 -1.86,-13.54 -4.83,-23.8 -8.91,-31.45 -4.27,-7.42 -9.84,-13.32 -16.71,-17.91 -6.87,-4.37 -18.56,-9.39 -35.26,-14.85l0 -31.45 194.14 0 190.8 622.56 209.92 -622.56 183.75 0 0 31.45zm689.19 -31.45l0 193.25 -53.27 0c-5.57,-20.96 -11.14,-39.31 -16.89,-55.03 -5.75,-15.94 -11.88,-29.04 -18,-39.74 -6.13,-10.7 -12.99,-19.22 -20.42,-25.55 -7.42,-6.33 -16.15,-10.7 -26.36,-13.1 -10.02,-2.4 -22.27,-3.5 -36.38,-3.5l-171.87 0 0 335.19 116.37 0c15.96,0 28.4,-2.62 37.49,-8.08 9.09,-5.24 16.71,-14.41 22.64,-27.08 5.94,-12.88 11.69,-32.97 17.08,-60.27l51.23 0 0 245.66 -51.23 0c-5.01,-25.55 -10.77,-44.77 -16.89,-57.87 -6.13,-12.88 -13.36,-22.27 -21.9,-27.73 -8.54,-5.68 -21.34,-8.3 -38.42,-8.3l-116.37 0 0 369.04 169.09 0c17.82,0 32.3,-1.75 43.25,-5.46 11.14,-3.49 20.6,-9.83 28.58,-18.56 7.98,-8.73 15.03,-20.09 21.16,-34.07 6.13,-14.19 11.32,-28.82 15.59,-43.89 4.08,-15.07 9.84,-37.34 17.08,-66.17l53.83 0 -10.39 224.48 -503.55 0 0 -31.44c22.64,-6.77 37.68,-14.2 45.29,-22.71 7.61,-8.3 12.62,-20.09 14.85,-35.37 2.41,-15.29 3.53,-38.87 3.53,-70.31l0 -553.56c0,-29.26 -0.93,-50.88 -2.6,-64.2 -1.86,-13.54 -4.83,-23.8 -9.09,-31.45 -4.08,-7.42 -9.65,-13.32 -16.52,-17.91 -6.87,-4.37 -18.75,-9.39 -35.45,-14.85l0 -31.45 508.56 0zm689.56 0l0 193.25 -53.27 0c-5.57,-20.96 -11.14,-39.31 -16.89,-55.03 -5.75,-15.94 -11.88,-29.04 -18.01,-39.74 -6.13,-10.7 -12.99,-19.22 -20.42,-25.55 -7.43,-6.33 -16.15,-10.7 -26.36,-13.1 -10.02,-2.4 -22.27,-3.5 -36.38,-3.5l-171.87 0 0 335.19 116.37 0c15.96,0 28.4,-2.62 37.49,-8.08 9.09,-5.24 16.71,-14.41 22.64,-27.08 5.94,-12.88 11.69,-32.97 17.08,-60.27l51.23 0 0 245.66 -51.23 0c-5.01,-25.55 -10.77,-44.77 -16.89,-57.87 -6.13,-12.88 -13.36,-22.27 -21.9,-27.73 -8.54,-5.68 -21.34,-8.3 -38.42,-8.3l-116.37 0 0 369.04 169.09 0c17.82,0 32.3,-1.75 43.25,-5.46 11.14,-3.49 20.6,-9.83 28.58,-18.56 7.98,-8.73 15.03,-20.09 21.16,-34.07 6.13,-14.19 11.32,-28.82 15.59,-43.89 4.08,-15.07 9.84,-37.34 17.08,-66.17l53.82 0 -10.39 224.48 -503.55 0 0 -31.44c22.64,-6.77 37.68,-14.2 45.29,-22.71 7.61,-8.3 12.62,-20.09 14.85,-35.37 2.41,-15.29 3.53,-38.87 3.53,-70.31l0 -553.56c0,-29.26 -0.93,-50.88 -2.6,-64.2 -1.86,-13.54 -4.83,-23.8 -9.09,-31.45 -4.08,-7.42 -9.65,-13.32 -16.52,-17.91 -6.87,-4.37 -18.75,-9.39 -35.45,-14.85l0 -31.45 508.56 0zm230.56 674.32c7.24,37.56 17.08,67.04 29.33,88.88 12.43,21.84 28.4,37.78 47.89,48.26 19.67,10.48 44.73,15.72 75.54,15.72 42.5,0 74.99,-13.1 97.63,-39.09 22.64,-25.99 33.97,-63.98 33.97,-113.77 0,-32.1 -4.64,-58.96 -14.11,-80.58 -9.47,-21.84 -24.87,-42.36 -46.22,-61.58 -21.34,-19 -54.01,-41.49 -97.81,-67.04 -42.5,-24.68 -75.91,-48.91 -100.6,-72.72 -24.69,-23.58 -43.06,-49.35 -55.31,-77.08 -12.07,-27.73 -18.19,-57.87 -18.19,-90.84 0,-47.82 9.65,-89.09 28.58,-124.47 19.12,-35.16 46.96,-62.23 83.71,-81.45 36.94,-19.22 79.07,-28.82 126.4,-28.82 27.66,0 54.57,1.75 80.74,5.24 26.36,3.28 59.21,10.92 98.74,22.93l0 172.73 -53.83 0c-8.35,-37.56 -18.75,-66.82 -31.55,-87.56 -12.62,-20.96 -27.47,-35.59 -44.55,-43.89 -17.07,-8.3 -39.16,-12.45 -66.26,-12.45 -23.57,0 -44.73,5.02 -63.48,15.29 -18.56,10.26 -33.41,25.77 -44.17,46.51 -10.95,20.53 -16.33,45.2 -16.33,73.81 0,30.35 4.64,55.9 13.73,76.65 9.28,20.96 23.76,40.4 43.25,58.3 19.67,17.91 48.63,38 87.05,60.05 46.4,27.3 82.41,52.84 108.02,76.21 25.43,23.58 45.47,50.22 59.76,80.36 14.29,29.92 21.53,65.07 21.53,105.25 0,44.77 -6.12,82.54 -18,113.55 -12.06,30.79 -28.58,56.12 -49.74,75.34 -21.16,19.44 -46.59,33.63 -76.1,42.36 -29.7,8.73 -61.99,13.1 -97.07,13.1 -56.98,0 -122.5,-11.36 -196.93,-33.85l0 -175.35 54.38 0z"/>
  </g>
 </g>
</svg>
