<?xml version="1.0" encoding="UTF-8"?>
<!DOCTYPE svg PUBLIC "-//W3C//DTD SVG 1.1//EN" "http://www.w3.org/Graphics/SVG/1.1/DTD/svg11.dtd">
<!-- Creator: CorelDRAW -->
<svg xmlns="http://www.w3.org/2000/svg" xml:space="preserve" width="390.482mm" height="65.4635mm" version="1.1" style="shape-rendering:geometricPrecision; text-rendering:geometricPrecision; image-rendering:optimizeQuality; fill-rule:evenodd; clip-rule:evenodd"
viewBox="0 0 52824.78 8855.97"
 xmlns:xlink="http://www.w3.org/1999/xlink"
 xmlns:xodm="http://www.corel.com/coreldraw/odm/2003">
 <defs>
  <style type="text/css">
   <![CDATA[
    .str0 {stroke:#2B2A29;stroke-width:27.06;stroke-miterlimit:22.9256}
    .str1 {stroke:#C46A2D;stroke-width:27.06;stroke-miterlimit:22.9256}
    .fil0 {fill:#212120;fill-rule:nonzero}
    .fil1 {fill:#C46A2D;fill-rule:nonzero}
   ]]>
  </style>
 </defs>
 <g id="Слой_x0020_1">
  <metadata id="CorelCorpID_0Corel-Layer"/>
  <path class="fil0 str0" d="M4792.96 1939.02l-185.57 0c-71.89,-584.14 -185.57,-953.89 -342.69,-1107.3 -150.46,-153.41 -469.75,-230.11 -959.56,-230.11l-1537.98 0c-137.08,0 -225.69,39.33 -264.14,116.03 -46.79,84.58 -68.53,214.38 -68.53,391.4l0 2938.39 1606.52 0c346.05,0 573.4,-80.64 685.4,-241.92 85.25,-137.68 147.12,-468.09 185.57,-991.26l225.68 0 0 2869.54 -225.68 0c-45.14,-544.79 -117.02,-887.01 -215.65,-1024.69 -96.96,-123.92 -315.96,-184.89 -655.32,-184.89l-1606.52 0 0 2800.71c0,460.23 75.23,774.92 224.01,944.06 112,123.9 337.69,204.55 677.04,241.91l0 230.13 -2322.01 0 0 -230.13c339.35,-45.22 571.72,-149.47 695.43,-310.74 110.34,-161.28 167.18,-507.44 167.18,-1036.5l0 -5475.54c0,-497.6 -71.89,-828.02 -215.67,-989.3 -105.32,-100.31 -320.97,-169.14 -646.94,-208.48l0 -230.11 4740.98 0 38.45 1728.81zm6253.88 -1522.3c-260.79,70.81 -427.96,192.75 -499.85,369.76 -96.96,206.51 -147.1,641.18 -147.1,1302.01l0 3341.58c0,906.68 -78.57,1602.93 -234.04,2086.77 -287.54,883.09 -845.9,1325.61 -1675.06,1325.61 -1240.41,0 -1862.28,-1079.76 -1862.28,-3239.29l0 -3986.68c0,-430.74 -15.06,-696.25 -48.5,-796.56 -71.87,-230.11 -254.08,-363.85 -548.31,-403.19l0 -230.11 1989.34 0 0 230.11c-314.29,47.21 -516.57,139.65 -608.51,277.33 -85.25,137.68 -127.04,446.45 -127.04,922.43l0 4090.91c0,1842.88 469.74,2765.31 1410.91,2765.31 548.33,0 956.23,-375.66 1223.7,-1128.93 118.7,-322.56 177.2,-922.43 177.2,-1797.66l0 -3457.61c0,-615.61 -10.02,-967.67 -30.09,-1060.1 -71.89,-361.89 -274.16,-564.46 -606.84,-611.67l0 -230.11 1586.47 0 0 230.11zm6018.17 8274.29l-1175.21 0 -1675.06 -4022.08 -774 47.2 0 2466.35c0,436.63 61.85,749.35 185.55,932.26 118.7,192.73 352.75,308.78 705.46,346.14l0 230.13 -2281.88 0 0 -230.13c325.97,-45.22 544.98,-173.07 656.98,-379.59 90.27,-177.02 137.08,-531.03 137.08,-1060.1l0 -5278.86c0,-491.69 -53.49,-818.18 -157.14,-979.46 -112,-169.14 -322.65,-277.31 -636.92,-322.55l0 -230.11 2340.39 0c550,0 999.69,121.94 1352.42,367.79 523.25,369.76 784.04,987.34 784.04,1856.65 0,1128.93 -548.32,1831.08 -1646.64,2108.4l1499.54 3457.61c110.32,253.72 339.35,407.13 685.4,460.23l0 230.13zm-1165.19 -6279.97c0,-798.51 -267.46,-1333.48 -804.1,-1600.96 -305.91,-169.16 -662,-239.95 -1066.56,-208.48 -242.4,15.73 -392.84,47.2 -451.37,92.44 -91.94,76.7 -137.07,230.11 -137.07,460.23l0 3158.66c698.78,-7.87 1211.98,-88.51 1537.97,-241.92 613.53,-285.17 921.12,-837.85 921.12,-1659.97zm7183.36 -1958.92c-229.03,53.11 -366.1,137.68 -411.24,253.72 -71.89,184.88 -106.99,633.3 -106.99,1347.25l0 6753.95 -20.06 0 -3555.74 -7178.77 -78.57 0 0 5070.38c0,674.61 51.83,1128.93 157.14,1359.05 103.65,230.13 302.58,365.83 596.81,403.19l0 230.13 -1596.48 0 0 -230.13c274.15,-53.1 441.33,-291.08 499.84,-713.93 20.06,-123.92 28.42,-472.04 28.42,-1048.31l0 -5554.21c-103.65,-239.95 -168.84,-385.48 -195.59,-438.59 -110.34,-169.14 -222.35,-253.72 -332.67,-253.72l0 -230.11 949.52 0 3243.12 6441.23 0 -4610.15c0,-682.48 -58.5,-1128.93 -177.19,-1335.45 -90.27,-139.64 -287.54,-228.14 -586.78,-265.52l0 -230.11 1586.47 0 0 230.11zm4901.46 8238.89l-2791.77 0 0 -230.13c509.87,-23.59 825.82,-106.2 949.54,-253.71 118.68,-153.41 177.2,-479.9 177.2,-979.46l0 -5530.62c0,-515.3 -58.52,-845.71 -177.2,-991.26 -110.34,-131.78 -426.28,-216.34 -949.54,-253.72l0 -230.11 2791.77 0 0 230.11c-503.19,31.48 -819.14,116.04 -949.54,253.72 -118.7,145.55 -177.2,475.96 -177.2,991.26l0 5530.62c0,491.69 65.21,814.24 195.59,967.65 137.09,147.51 448.02,236.02 931.15,265.52l0 230.13z"/>
  <path class="fil1 str1" d="M35119.52 8691.01l-1733.57 0 0 -230.13c274.17,-37.36 444.68,-133.74 509.87,-287.15 65.19,-153.41 96.96,-507.43 96.96,-1060.09l-28.41 -6201.29 -1430.99 7778.65 -106.99 0 -1441.01 -7766.85 -58.51 -23.61 0 5959.38c0,568.4 13.38,906.68 40.12,1012.89 71.87,354.03 264.12,550.7 576.74,588.07l0 230.13 -1439.35 0 0 -230.13c195.59,-53.1 322.63,-153.41 382.82,-298.94 76.89,-216.34 117.02,-649.04 117.02,-1302.01l0 -5392.94c0,-430.72 -40.12,-719.84 -117.02,-865.38 -60.19,-92.44 -183.89,-149.49 -372.79,-173.08l0 -218.32 1282.21 0 1205.31 6751.99 1195.26 -6751.99 1322.33 0 0 218.32c-260.79,31.47 -424.62,161.27 -489.81,391.38 -26.75,92.45 -38.46,342.23 -38.46,749.35l0 5705.66c0,422.86 11.72,678.54 38.46,770.98 58.51,237.99 222.33,377.62 489.81,414.99l0 230.13zm6008.14 -2073.01l-362.77 2073.01 -4642.35 0 0 -230.13c319.3,-37.36 534.94,-114.07 646.94,-230.11 143.78,-169.14 215.67,-487.76 215.67,-955.86l0 -5636.81c0,-491.71 -75.24,-818.19 -225.69,-979.46 -105.32,-106.21 -317.61,-178.98 -636.92,-218.32l0 -230.11 4563.78 0 60.19 1728.81 -187.23 0c-71.89,-584.14 -185.57,-953.89 -342.71,-1107.3 -162.16,-153.41 -496.51,-230.11 -998.01,-230.11l-1322.33 0c-132.07,0 -215.65,19.67 -255.78,57.03 -65.19,70.81 -96.96,196.67 -96.96,381.56l0 2961.98 1497.86 0c372.79,0 623.55,-84.58 753.95,-253.72 98.62,-139.64 173.85,-450.39 225.68,-934.22l185.55 0 0 2869.54 -185.55 0c-51.83,-523.16 -137.08,-851.61 -254.1,-991.26 -118.7,-145.54 -359.43,-218.32 -725.53,-218.32l-1497.86 0 0 3203.9c0,275.35 83.59,452.37 254.1,529.07 163.83,62.93 581.76,92.44 1253.79,92.44 548.32,0 949.54,-114.07 1205.31,-346.16 254.08,-230.11 486.46,-674.61 695.43,-1335.45l175.54 0zm6018.17 0l-362.77 2073.01 -4642.35 0 0 -230.13c319.3,-37.36 534.94,-114.07 646.94,-230.11 143.78,-169.14 215.67,-487.76 215.67,-955.86l0 -5636.81c0,-491.71 -75.24,-818.19 -225.69,-979.46 -105.32,-106.21 -317.61,-178.98 -636.92,-218.32l0 -230.11 4563.78 0 60.19 1728.81 -187.23 0c-71.89,-584.14 -185.57,-953.89 -342.71,-1107.3 -162.16,-153.41 -496.51,-230.11 -998.01,-230.11l-1322.33 0c-132.07,0 -215.65,19.67 -255.78,57.03 -65.19,70.81 -96.96,196.67 -96.96,381.56l0 2961.98 1497.86 0c372.79,0 623.55,-84.58 753.95,-253.72 98.62,-139.64 173.85,-450.39 225.68,-934.22l185.55 0 0 2869.54 -185.55 0c-51.83,-523.16 -137.08,-851.61 -254.1,-991.26 -118.7,-145.54 -359.43,-218.32 -725.53,-218.32l-1497.86 0 0 3203.9c0,275.35 83.59,452.37 254.1,529.07 163.84,62.93 581.76,92.44 1253.79,92.44 548.32,0 949.54,-114.07 1205.31,-346.16 254.08,-230.11 486.46,-674.61 695.43,-1335.45l175.54 0zm5665.42 -47.2c0,584.14 -155.47,1095.51 -469.75,1534.1 -372.79,491.69 -877.65,737.54 -1517.92,737.54 -280.84,0 -565.03,-76.7 -852.57,-232.07 -280.84,-137.68 -451.35,-206.52 -509.87,-206.52 -220.67,0 -346.05,141.61 -371.12,426.8l-215.65 0 -294.22 -2615.84 235.71 0c371.12,1512.47 1011.39,2269.68 1919.12,2269.68 397.88,0 737.23,-161.27 1018.07,-483.83 280.86,-314.68 421.28,-660.83 421.28,-1038.46 0,-399.26 -103.64,-755.25 -312.61,-1069.94 -235.71,-354.02 -698.78,-808.35 -1390.87,-1361.01 -626.91,-491.71 -1003.03,-818.19 -1126.74,-979.46 -319.29,-375.66 -479.77,-841.79 -479.77,-1394.46 0,-676.57 172.17,-1209.56 518.22,-1600.96 314.3,-361.89 702.12,-542.84 1166.87,-542.84 222.33,0 489.81,72.78 802.42,220.29 314.27,145.54 493.15,218.3 538.28,218.3 125.39,0 200.61,-53.1 225.69,-161.27 20.06,-92.44 36.78,-184.88 50.15,-277.33l213.99 0 215.65 2627.63 -234.05 0c-105.32,-629.37 -290.87,-1148.6 -558.35,-1555.73 -327.66,-491.69 -728.87,-737.54 -1205.31,-737.54 -280.84,0 -534.94,108.17 -763.97,322.55 -267.48,269.45 -401.2,615.61 -401.2,1038.47 0,544.79 284.19,1073.86 852.57,1589.16 528.26,446.45 1059.86,894.88 1596.49,1349.21 586.77,584.14 897.7,1225.31 929.46,1923.52z"/>
 </g>
</svg>
